<svg xmlns:xlink="http://www.w3.org/1999/xlink" xmlns="http://www.w3.org/2000/svg" width="1440" height="872" viewBox="0 0 1440 872" fill="none">
  <g clip-path="url(#AuthFormBackground_svg__a)">
    <rect width="1440" height="872" fill="#F7F5FE"/>
    <g clip-path="url(#AuthFormBackground_svg__b)">
      <path fill-rule="evenodd" clip-rule="evenodd" d="M760.774 461.562C780.903 442.659 812.546 443.652 831.45 463.781C1080.86 729.364 1349.5 914.956 1652.91 914.956C1680.52 914.956 1702.91 937.341 1702.91 964.956C1702.91 992.57 1680.52 1014.96 1652.91 1014.96C1306.87 1014.96 1013.26 803.46 758.555 532.238C739.651 512.109 740.644 480.466 760.774 461.562Z" fill="white" fill-opacity="0.3" stroke="white" stroke-opacity="0.8" stroke-width="2" stroke-linecap="round"/>
      <path fill-rule="evenodd" clip-rule="evenodd" d="M491.002 -91.9409C496.498 -119.003 522.891 -136.486 549.953 -130.99C642.335 -112.229 737.806 -65.9747 827.658 -19.3317C844.737 -10.466 861.613 -1.58748 878.3 7.19121C951.893 45.9071 1021.8 82.6812 1089.05 107.852C1171.59 138.745 1239.45 147.766 1295.36 127.478C1349.44 107.857 1405.21 55.8876 1452.37 -66.0298C1462.33 -91.7841 1491.29 -104.586 1517.04 -94.6225C1542.8 -84.6595 1555.6 -55.7049 1545.63 -29.9506C1492.8 106.632 1421.03 188.261 1329.47 221.482C1239.75 254.036 1143.87 235.142 1054 201.508C980.217 173.894 903.279 133.383 829.463 94.515C813.332 86.0217 797.351 77.6068 781.585 69.4222C691.118 22.4601 607.032 -17.3573 530.051 -32.9904C502.989 -38.486 485.506 -64.8791 491.002 -91.9409Z" fill="white" fill-opacity="0.3" stroke="white" stroke-opacity="0.8" stroke-width="2" stroke-linecap="round"/>
      <path fill-rule="evenodd" clip-rule="evenodd" d="M-51.3392 276.631C-48.5883 249.154 -24.0838 229.11 3.39305 231.861C19.1751 233.441 33.9617 240.114 44.7467 245.788C56.7049 252.079 69.4659 260.279 82.3617 269.438C108.235 287.814 137.824 312.327 167.678 339.407C227.183 393.383 291.552 461.038 333.639 517.553C350.132 539.7 345.549 571.025 323.401 587.518C301.254 604.012 269.929 599.428 253.436 577.281C216.377 527.518 156.903 464.645 100.492 413.475C72.3875 387.982 45.9998 366.268 24.4561 350.967C13.6435 343.287 4.83592 337.785 -1.81226 334.288C-5.85665 332.16 -8.03899 331.346 -8.66124 331.11C-35.0556 327.358 -54.0197 303.405 -51.3392 276.631Z" fill="white" fill-opacity="0.3" stroke="white" stroke-opacity="0.8" stroke-width="2" stroke-linecap="round"/>
      <path fill-rule="evenodd" clip-rule="evenodd" d="M-229.887 -26.3229C-228.046 -53.8757 -204.218 -74.7196 -176.665 -72.879C-52.9994 -64.6178 94.3221 -42.092 258.437 33.3416C422.471 108.738 600.789 235.831 788.599 450.048C806.803 470.812 804.728 502.402 783.964 520.606C763.2 538.811 731.61 536.736 713.405 515.972C533.589 310.872 366.291 192.973 216.674 124.203C67.1372 55.4703 -67.2285 34.6545 -183.331 26.8986C-210.884 25.058 -231.727 1.22992 -229.887 -26.3229Z" fill="white" fill-opacity="0.3" stroke="white" stroke-opacity="0.8" stroke-width="2" stroke-linecap="round"/>
      <path d="M1296 5.5098C1296 47.2073 1262.2 81.0098 1220.5 81.0098C1178.8 81.0098 1145 47.2073 1145 5.5098C1145 -36.1877 1178.8 -69.9902 1220.5 -69.9902C1262.2 -69.9902 1296 -36.1877 1296 5.5098Z" fill="white" fill-opacity="0.3"/>
      <path d="M1220.5 82.0098C1262.75 82.0098 1297 47.7596 1297 5.5098C1297 -36.74 1262.75 -70.9902 1220.5 -70.9902C1178.25 -70.9902 1144 -36.74 1144 5.5098C1144 47.7596 1178.25 82.0098 1220.5 82.0098Z" stroke="white" stroke-opacity="0.8" stroke-width="2"/>
      <path d="M237.002 784.51C237.002 842.224 190.216 889.01 132.502 889.01C74.7881 889.01 28.0019 842.224 28.0019 784.51C28.0019 726.796 74.7881 680.01 132.502 680.01C190.216 680.01 237.002 726.796 237.002 784.51Z" fill="white" fill-opacity="0.3"/>
      <path d="M132.502 890.01C190.768 890.01 238.002 842.776 238.002 784.51C238.002 726.244 190.768 679.01 132.502 679.01C74.2359 679.01 27.0019 726.244 27.0019 784.51C27.0019 842.776 74.2359 890.01 132.502 890.01Z" stroke="white" stroke-opacity="0.8" stroke-width="2"/>
      <path fill-rule="evenodd" clip-rule="evenodd" d="M1725.76 267.767C1739.15 291.918 1730.42 322.351 1706.27 335.739C1613.58 387.128 1537.44 451.846 1519.25 530.744C1502.26 604.434 1531.48 715.826 1714.72 874.179C1735.62 892.235 1737.92 923.809 1719.86 944.703C1701.81 965.596 1670.23 967.896 1649.34 949.841C1457.08 783.694 1392.05 637.335 1421.81 508.276C1450.37 384.424 1561.98 301.392 1657.79 248.28C1681.94 234.891 1712.37 243.616 1725.76 267.767Z" fill="white" fill-opacity="0.3" stroke="white" stroke-opacity="0.8" stroke-width="2" stroke-linecap="round"/>
      <path d="M447.459 657.882C449.51 687.635 427.053 713.416 397.3 715.467C367.547 717.518 341.765 695.061 339.715 665.308C337.664 635.555 360.121 609.773 389.874 607.723C419.627 605.672 445.409 628.129 447.459 657.882Z" fill="white" fill-opacity="0.3"/>
      <path d="M397.369 716.465C427.673 714.376 450.546 688.117 448.457 657.813C446.368 627.509 420.109 604.636 389.805 606.725C359.502 608.814 336.629 635.073 338.717 665.377C340.806 695.68 367.065 718.553 397.369 716.465Z" stroke="white" stroke-opacity="0.8" stroke-width="2"/>
      <path fill-rule="evenodd" clip-rule="evenodd" d="M462.071 735.17C484.57 719.159 515.788 724.418 531.8 746.917C566.055 795.053 658.303 890.306 771.085 924.227C797.53 932.18 812.519 960.065 804.566 986.509C796.612 1012.95 768.728 1027.94 742.284 1019.99C600.192 977.254 491.547 862.824 450.325 804.898C434.313 782.4 439.573 751.181 462.071 735.17Z" fill="white" fill-opacity="0.3" stroke="white" stroke-opacity="0.8" stroke-width="2" stroke-linecap="round"/>
    </g>
  </g>
  <defs>
    <clipPath id="AuthFormBackground_svg__a">
      <rect width="1440" height="872" fill="white"/>
    </clipPath>
    <clipPath id="AuthFormBackground_svg__b">
      <rect width="1712" height="875" fill="white" transform="translate(-136 -2)"/>
    </clipPath>
  </defs>
</svg>