<svg width="50" height="50" viewBox="0 0 50 50" fill="none" xmlns="http://www.w3.org/2000/svg">
<g clip-path="url(#clip0_1270_3824)">
<path d="M44.5803 0.136658C43.7697 0.33197 43.1545 0.683533 42.5197 1.30853C41.1916 2.64642 40.8498 4.59955 41.6701 6.32806C42.0119 7.06049 42.9494 7.98822 43.6818 8.33002C45.4201 9.14056 47.3537 8.8183 48.6818 7.48041C50.4201 5.73236 50.4201 3.04681 48.6916 1.30853C47.5783 0.195251 46.0842 -0.234436 44.5803 0.136658Z" fill="#535CE8"/>
<path d="M27.2266 3.23242C26.8066 3.44727 26.4648 4.02344 26.4648 4.49219C26.4648 4.6582 26.5527 4.9707 26.6602 5.17578C26.8848 5.61523 27.4414 5.95703 27.9297 5.95703C28.418 5.95703 28.9746 5.61523 29.1992 5.17578C29.3066 4.9707 29.3945 4.6582 29.3945 4.49219C29.3945 4.00391 29.0527 3.44727 28.6133 3.22266C28.1348 2.97852 27.6953 2.97852 27.2266 3.23242Z" fill="#535CE8"/>
<path d="M17.8712 6.02537C17.6856 6.0449 17.1583 6.15232 16.7091 6.26951C12.9786 7.17771 10.0587 10.1367 9.16024 13.8965L8.9454 14.8047L8.0372 15.0195C6.17196 15.4687 4.62899 16.3086 3.23251 17.6367C-1.61124 22.2363 -0.908116 29.8144 4.69735 33.4961C5.15634 33.7988 5.78134 34.1504 6.09384 34.2676C6.63095 34.4922 6.66024 34.5215 6.97274 35.2051C8.61337 38.7597 12.295 41.1133 16.211 41.1133C17.8907 41.1133 19.9317 40.5566 21.3184 39.7265C21.7481 39.4726 22.129 39.2578 22.1681 39.2578C22.2071 39.2578 22.3927 39.4922 22.588 39.7656C22.7833 40.0488 23.2032 40.5566 23.5255 40.8789C27.5977 45.0683 34.1505 45.0781 38.1837 40.9179C39.5411 39.5117 40.4688 37.8027 40.879 35.9277L41.045 35.1953L41.9337 34.9902C45.6544 34.1406 48.6817 31.2109 49.6778 27.4902C49.9024 26.6308 49.9317 26.3281 49.9317 25C49.9317 23.6816 49.9024 23.3691 49.6778 22.539C48.8966 19.5996 46.9142 17.1875 44.1993 15.8691C43.3106 15.4394 43.2911 15.4199 43.0665 14.8828C42.9493 14.5801 42.588 13.9453 42.2657 13.457C40.1563 10.2441 36.2794 8.47654 32.4708 8.97459C31.2794 9.13084 29.6876 9.67771 28.711 10.2636C28.2618 10.5273 27.8712 10.7422 27.8321 10.7422C27.7931 10.7422 27.5977 10.498 27.4024 10.2051C27.1974 9.92185 26.7091 9.34568 26.3087 8.94529C24.1407 6.76756 21.0157 5.68357 17.8712 6.02537ZM19.8243 17.8711C20.2638 18.0957 20.6056 18.6523 20.6056 19.1406C20.6056 19.8828 19.8829 20.6054 19.1309 20.6054C18.4181 20.6054 17.6759 19.8633 17.6759 19.1406C17.6759 18.6719 18.0177 18.0957 18.4376 17.8808C18.9063 17.6269 19.3458 17.6269 19.8243 17.8711ZM34.4727 17.8711C34.9122 18.0957 35.254 18.6523 35.254 19.1406C35.254 19.8828 34.5313 20.6054 33.7794 20.6054C33.0665 20.6054 32.3243 19.8633 32.3243 19.1406C32.3243 18.6719 32.6661 18.0957 33.086 17.8808C33.5548 17.6269 33.9942 17.6269 34.4727 17.8711ZM11.0352 23.7304C11.4747 23.9551 11.8165 24.5117 11.8165 25C11.8165 25.7422 11.0938 26.4648 10.3419 26.4648C9.89267 26.4648 9.2872 26.084 9.07235 25.664C8.71103 24.9609 8.93563 24.1894 9.62899 23.7695C10.0977 23.4863 10.5274 23.4765 11.0352 23.7304ZM25.6837 23.7304C26.1231 23.9551 26.4649 24.5117 26.4649 25C26.4649 25.7422 25.7423 26.4648 24.9903 26.4648C24.5411 26.4648 23.9356 26.084 23.7208 25.664C23.3595 24.9609 23.5841 24.1894 24.2774 23.7695C24.7462 23.4863 25.1759 23.4765 25.6837 23.7304ZM40.3321 23.7304C40.7716 23.9551 41.1134 24.5117 41.1134 25C41.1134 25.7422 40.3907 26.4648 39.6388 26.4648C39.1895 26.4648 38.5841 26.084 38.3692 25.664C38.0079 24.9609 38.2325 24.1894 38.9259 23.7695C39.3946 23.4863 39.8243 23.4765 40.3321 23.7304ZM16.8946 29.5898C17.3341 29.8144 17.6759 30.3711 17.6759 30.8594C17.6759 31.6015 16.9532 32.3242 16.211 32.3242C15.7227 32.3242 15.1661 31.9824 14.9415 31.5429C14.5704 30.8203 14.7852 30.0488 15.4884 29.6289C15.9571 29.3457 16.3868 29.3359 16.8946 29.5898ZM31.5431 29.5898C31.9825 29.8144 32.3243 30.3711 32.3243 30.8594C32.3243 31.6015 31.6016 32.3242 30.8595 32.3242C30.3712 32.3242 29.8145 31.9824 29.5899 31.5429C29.2188 30.8203 29.4337 30.0488 30.1368 29.6289C30.6056 29.3457 31.0352 29.3359 31.5431 29.5898Z" fill="#535CE8"/>
<path d="M3.78906 9.0918C3.36914 9.30664 3.02734 9.88281 3.02734 10.3516C3.02734 11.0938 3.75 11.8164 4.49219 11.8164C5.23438 11.8164 5.95703 11.0938 5.95703 10.3516C5.95703 9.86328 5.61523 9.30664 5.17578 9.08203C4.69727 8.83789 4.25781 8.83789 3.78906 9.0918Z" fill="#535CE8"/>
<path d="M44.8047 38.3887C44.3848 38.6035 44.043 39.1797 44.043 39.6484C44.043 40.3906 44.7656 41.1133 45.5078 41.1133C46.25 41.1133 46.9727 40.3906 46.9727 39.6484C46.9727 39.1602 46.6309 38.6035 46.1914 38.3789C45.7129 38.1348 45.2734 38.1348 44.8047 38.3887Z" fill="#535CE8"/>
<path d="M3.36914 41.3477C2.55859 41.543 1.94336 41.8945 1.30859 42.5195C-0.419922 44.2578 -0.419922 46.9629 1.30859 48.6816C3.05664 50.4199 5.75195 50.4199 7.4707 48.6914C9.20898 46.9434 9.20898 44.2578 7.48047 42.5195C6.36719 41.4062 4.87305 40.9766 3.36914 41.3477Z" fill="#535CE8"/>
<path d="M18.4375 44.248C18.0176 44.4629 17.6758 45.0391 17.6758 45.5078C17.6758 46.25 18.3984 46.9727 19.1406 46.9727C19.8828 46.9727 20.6055 46.25 20.6055 45.5078C20.6055 45.0195 20.2637 44.4629 19.8242 44.2383C19.3457 43.9941 18.9062 43.9941 18.4375 44.248Z" fill="#535CE8"/>
</g>
<defs>
<clipPath id="clip0_1270_3824">
<rect width="50" height="50" fill="white"/>
</clipPath>
</defs>
</svg>
