<svg width="12" height="12" viewBox="0 0 12 12" fill="none" xmlns="http://www.w3.org/2000/svg">
<mask id="path-1-inside-1_1068_3925" fill="white">
<path d="M9.73505 0C9.57337 0 9.41167 0.0618749 9.28851 0.185033L8.02538 1.44819L7.1323 2.34128L0 9.47368V12H2.52628L11.8148 2.71135C12.0617 2.4644 12.0617 2.06457 11.8148 1.81826L10.1816 0.185033C10.0584 0.0618749 9.89674 0 9.73505 0ZM9.73505 1.52467L10.4752 2.2648L9.65857 3.08141L8.91845 2.34128L9.73505 1.52467ZM8.02538 3.23437L8.7655 3.97451L2.00326 10.7368H1.26314V9.99671L8.02538 3.23437Z"/>
</mask>
<path d="M9.73505 0C9.57337 0 9.41167 0.0618749 9.28851 0.185033L8.02538 1.44819L7.1323 2.34128L0 9.47368V12H2.52628L11.8148 2.71135C12.0617 2.4644 12.0617 2.06457 11.8148 1.81826L10.1816 0.185033C10.0584 0.0618749 9.89674 0 9.73505 0ZM9.73505 1.52467L10.4752 2.2648L9.65857 3.08141L8.91845 2.34128L9.73505 1.52467ZM8.02538 3.23437L8.7655 3.97451L2.00326 10.7368H1.26314V9.99671L8.02538 3.23437Z" fill="white"/>
<path d="M9.28851 0.185033L12.117 3.01344V3.01344L9.28851 0.185033ZM0 9.47368L-2.82845 6.64528L-4 7.81685V9.47368H0ZM0 12H-4V16H0V12ZM2.52628 12V16H4.18315L5.35473 14.8284L2.52628 12ZM11.8148 2.71135L14.6432 5.53975V5.53975L11.8148 2.71135ZM11.8148 1.81826L8.98634 4.64667L8.98997 4.65028L11.8148 1.81826ZM10.1816 0.185033L7.35314 3.01344L7.35315 3.01344L10.1816 0.185033ZM9.73505 1.52467L12.5635 -1.30374L9.73505 -4.13223L6.90661 -1.30374L9.73505 1.52467ZM10.4752 2.2648L13.3036 5.09321L16.132 2.2648L13.3036 -0.563604L10.4752 2.2648ZM9.65857 3.08141L6.83013 5.90982L9.65857 8.73831L12.487 5.90982L9.65857 3.08141ZM8.91845 2.34128L6.09001 -0.487123L3.26164 2.34128L6.09001 5.16969L8.91845 2.34128ZM8.02538 3.23437L10.8538 0.405969L8.02538 -2.42252L5.19693 0.405969L8.02538 3.23437ZM8.7655 3.97451L11.5939 6.80291L14.4223 3.97451L11.5939 1.1461L8.7655 3.97451ZM2.00326 10.7368V14.7368H3.66013L4.83171 13.5652L2.00326 10.7368ZM1.26314 10.7368H-2.73686V14.7368H1.26314V10.7368ZM1.26314 9.99671L-1.56531 7.1683L-2.73686 8.33987V9.99671H1.26314ZM9.73505 -4C8.55377 -4 7.36206 -3.54538 6.46007 -2.64337L12.117 3.01344C11.4613 3.66913 10.593 4 9.73505 4V-4ZM6.46007 -2.64337L5.19693 -1.38022L10.8538 4.2766L12.117 3.01344L6.46007 -2.64337ZM5.19693 -1.38022L4.30385 -0.487123L9.96074 5.16969L10.8538 4.2766L5.19693 -1.38022ZM4.30385 -0.487123L-2.82845 6.64528L2.82845 12.3021L9.96074 5.16969L4.30385 -0.487123ZM-4 9.47368V12H4V9.47368H-4ZM0 16H2.52628V8H0V16ZM5.35473 14.8284L14.6432 5.53975L8.98634 -0.117058L-0.302169 9.17159L5.35473 14.8284ZM14.6432 5.53975C16.4503 3.73272 16.4555 0.797462 14.6396 -1.01377L8.98997 4.65028C7.66801 3.33168 7.67322 1.19608 8.98634 -0.117057L14.6432 5.53975ZM14.6432 -1.01015L13.01 -2.64337L7.35315 3.01344L8.98634 4.64666L14.6432 -1.01015ZM13.01 -2.64337C12.1081 -3.54538 10.9163 -4 9.73505 -4V4C8.87713 4 8.00882 3.66913 7.35314 3.01344L13.01 -2.64337ZM6.90661 4.35308L7.64673 5.09321L13.3036 -0.563604L12.5635 -1.30374L6.90661 4.35308ZM7.64673 -0.563604L6.83013 0.253008L12.487 5.90982L13.3036 5.09321L7.64673 -0.563604ZM12.487 0.253008L11.7469 -0.487123L6.09001 5.16969L6.83013 5.90982L12.487 0.253008ZM11.7469 5.16969L12.5635 4.35308L6.90661 -1.30374L6.09001 -0.487123L11.7469 5.16969ZM5.19693 6.06278L5.93705 6.80291L11.5939 1.1461L10.8538 0.405969L5.19693 6.06278ZM5.93705 1.1461L-0.825188 7.90844L4.83171 13.5652L11.5939 6.80291L5.93705 1.1461ZM2.00326 6.73684H1.26314V14.7368H2.00326V6.73684ZM5.26314 10.7368V9.99671H-2.73686V10.7368H5.26314ZM4.09159 12.8251L10.8538 6.06278L5.19693 0.405969L-1.56531 7.1683L4.09159 12.8251Z" fill="white" mask="url(#path-1-inside-1_1068_3925)"/>
</svg>
