<svg width="32" height="38" viewBox="0 0 32 38" fill="none" xmlns="http://www.w3.org/2000/svg">
<path d="M16 38C11.5667 38 7.79167 36.4715 4.675 33.4146C1.55833 30.3576 0 26.6361 0 22.25C0 20.1453 0.408333 18.1324 1.225 16.2115C2.04167 14.2905 3.2 12.595 4.7 11.125L16 0L27.3 11.125C28.8 12.595 29.9583 14.2905 30.775 16.2115C31.5917 18.1324 32 20.1453 32 22.25C32 26.6361 30.4417 30.3576 27.325 33.4146C24.2083 36.4715 20.4333 38 16 38ZM3 22.25H29C29 20.55 28.675 18.9333 28.025 17.4C27.375 15.8667 26.4667 14.5167 25.3 13.35L16 4.2L6.7 13.35C5.53333 14.5167 4.625 15.8674 3.975 17.4021C3.325 18.9368 3 20.5528 3 22.25Z" fill="#535CE8"/>
</svg>
