<svg width="27" height="26" viewBox="0 0 27 26" fill="none" xmlns="http://www.w3.org/2000/svg">
<path d="M13.6338 10.5625C12.2686 10.5625 11.1619 11.6538 11.1619 13C11.1619 14.3462 12.2686 15.4375 13.6338 15.4375C14.9989 15.4375 16.1056 14.3462 16.1056 13C16.1056 11.6538 14.9989 10.5625 13.6338 10.5625Z" fill="#8E8E8E"/>
<path fill-rule="evenodd" clip-rule="evenodd" d="M13.6338 5.95837C10.7579 5.95837 8.17158 7.09738 6.30793 8.50784C5.3749 9.21399 4.60931 9.99826 4.07216 10.7615C3.54524 11.5103 3.19714 12.2975 3.19714 13C3.19714 13.7025 3.54524 14.4898 4.07216 15.2386C4.60931 16.0018 5.3749 16.7861 6.30793 17.4922C8.17158 18.9027 10.7579 20.0417 13.6338 20.0417C16.5096 20.0417 19.096 18.9027 20.9596 17.4922C21.8926 16.7861 22.6582 16.0018 23.1954 15.2386C23.7223 14.4898 24.0704 13.7025 24.0704 13C24.0704 12.2975 23.7223 11.5103 23.1954 10.7615C22.6582 9.99826 21.8926 9.21399 20.9596 8.50784C19.096 7.09738 16.5096 5.95837 13.6338 5.95837ZM9.51405 13C9.51405 10.7564 11.3585 8.93754 13.6338 8.93754C15.909 8.93754 17.7535 10.7564 17.7535 13C17.7535 15.2437 15.909 17.0625 13.6338 17.0625C11.3585 17.0625 9.51405 15.2437 9.51405 13Z" fill="#8E8E8E"/>
</svg>
