<svg width="136" height="71" viewBox="0 0 136 71" fill="none" xmlns="http://www.w3.org/2000/svg">
<path fill-rule="evenodd" clip-rule="evenodd" d="M44.1806 2.5554C44.2297 2.70072 44.2701 2.84894 44.3013 2.99923L44.6927 4.88044L28.2504 10.5537C25.26 11.5855 23.5087 14.6949 24.1548 17.7998L33.7859 64.0845L15.4206 70.4213C15.0401 70.5526 14.6531 70.6184 14.2717 70.6246L14.1955 70.625C12.6476 70.618 11.2046 69.6324 10.6761 68.0696C10.6269 67.9243 10.5866 67.7761 10.5553 67.6258L0.0804084 17.2861C-0.307921 15.4198 0.742867 13.5542 2.52952 12.9378L39.4361 0.203653C39.8166 0.0723744 40.2035 0.00662685 40.585 0.000444116L40.6612 0C42.2091 0.00704645 43.652 0.992586 44.1806 2.5554ZM45.2105 7.36922L47.2823 17.3247L54.7763 53.3389C55.1646 55.2052 54.1138 57.0708 52.3272 57.6872L36.1892 63.2552L26.6238 17.2861C26.2355 15.4198 27.2863 13.5542 29.073 12.9378L45.2105 7.36922Z" fill="#0047FF"/>
<path fill-rule="evenodd" clip-rule="evenodd" d="M70.724 2.5554C70.7732 2.70072 70.8135 2.84894 70.8448 2.99923L71.2707 5.04644L55.3093 10.5537C52.319 11.5855 50.5677 14.6949 51.2137 17.7998L60.8104 63.9185L41.964 70.4213C41.5836 70.5526 41.1966 70.6184 40.8152 70.6246L40.739 70.625C39.1911 70.618 37.7481 69.6324 37.2195 68.0696C37.1704 67.9243 37.1301 67.7761 37.0988 67.6258L26.6239 17.2861C26.2355 15.4198 27.2863 13.5542 29.073 12.9378L65.9796 0.203653C66.36 0.0723744 66.747 0.00662685 67.1284 0.000444116L67.2046 0C68.7525 0.00704645 70.1955 0.992586 70.724 2.5554ZM71.7887 7.53543L73.8257 17.3247L81.3197 53.3389C81.7081 55.2052 80.6573 57.0708 78.8706 57.6872L63.2137 63.0892L53.6828 17.2861C53.2945 15.4198 54.3453 13.5542 56.1319 12.9378L71.7887 7.53543Z" fill="#1E5DFF"/>
<path fill-rule="evenodd" clip-rule="evenodd" d="M97.7829 2.5554C97.832 2.70072 97.8724 2.84894 97.9036 2.99923L98.295 4.88044L81.8527 10.5537C78.8623 11.5855 77.111 14.6949 77.7571 17.7998L87.3882 64.0845L69.0229 70.4213C68.6424 70.5526 68.2554 70.6184 67.874 70.6246L67.7978 70.625C66.2499 70.618 64.8069 69.6324 64.2784 68.0696C64.2292 67.9243 64.1889 67.7761 64.1576 67.6258L53.6827 17.2861C53.2944 15.4198 54.3452 13.5542 56.1318 12.9378L93.0384 0.203653C93.4189 0.0723744 93.8058 0.00662685 94.1873 0.000444116L94.2635 0C95.8114 0.00704645 97.2543 0.992586 97.7829 2.5554ZM98.8128 7.36922L100.885 17.3247L108.379 53.3389C108.767 55.2052 107.716 57.0708 105.929 57.6872L89.7915 63.2552L80.2261 17.2861C79.8378 15.4198 80.8886 13.5542 82.6752 12.9378L98.8128 7.36922Z" fill="#3D73FF"/>
<path fill-rule="evenodd" clip-rule="evenodd" d="M124.326 2.5554C124.375 2.70072 124.416 2.84894 124.447 2.99923L134.922 53.3389C135.31 55.2052 134.26 57.0708 132.473 57.6872L95.5663 70.4213C95.1859 70.5526 94.7989 70.6184 94.4175 70.6246L94.3413 70.625C92.7934 70.618 91.3504 69.6324 90.8218 68.0696C90.7727 67.9243 90.7324 67.7761 90.7011 67.6258L80.2262 17.2861C79.8378 15.4198 80.8886 13.5542 82.6753 12.9378L119.582 0.203653C119.962 0.0723744 120.349 0.00662685 120.731 0.000444116L120.807 0C122.355 0.00704645 123.798 0.992586 124.326 2.5554Z" fill="#6C95FF"/>
</svg>
