<svg width="21" height="20" viewBox="0 0 21 20" fill="none" xmlns="http://www.w3.org/2000/svg">
<path d="M10.2577 8.20623C9.12935 8.20623 8.20615 9.12943 8.20615 10.2578C8.20615 11.3861 9.12935 12.3093 10.2577 12.3093C11.386 12.3093 12.3092 11.3861 12.3092 10.2578C12.3092 9.12943 11.386 8.20623 10.2577 8.20623ZM16.4123 10.2578C16.4123 6.86246 13.653 4.10311 10.2577 4.10311C6.8624 4.10311 4.10308 6.86246 4.10308 10.2578C4.10308 12.535 5.34426 14.5148 7.18038 15.5816L8.20615 13.7967C6.98549 13.0787 6.15462 11.7759 6.15462 10.2578C6.15462 7.99081 7.99074 6.15467 10.2577 6.15467C12.5246 6.15467 14.3608 7.99081 14.3608 10.2578C14.3608 11.7759 13.5299 13.0787 12.3092 13.7967L13.335 15.5816C15.1711 14.5148 16.4123 12.535 16.4123 10.2578ZM10.2577 0C4.59545 0 0 4.59549 0 10.2578C0 14.0532 2.0618 17.3562 5.11859 19.1308L6.14436 17.3562C3.70303 15.9303 2.05154 13.2941 2.05154 10.2578C2.05154 5.72384 5.72379 2.05156 10.2577 2.05156C14.7916 2.05156 18.4638 5.72384 18.4638 10.2578C18.4638 13.2941 16.8124 15.9303 14.3608 17.3562L15.3865 19.1308C18.4536 17.3562 20.5154 14.0532 20.5154 10.2578C20.5154 4.59549 15.9199 0 10.2577 0Z" fill="#171A1F"/>
</svg>
