<svg width="32" height="32" viewBox="0 0 32 32" fill="none" xmlns="http://www.w3.org/2000/svg">
<path d="M27.4545 17.5667C27.5212 17.0667 27.5545 16.55 27.5545 16C27.5545 15.4667 27.5212 14.9333 27.4378 14.4333L30.8201 11.8C31.12 11.5667 31.2033 11.1167 31.02 10.7833L27.8211 5.25C27.6211 4.88333 27.2046 4.76667 26.838 4.88333L22.856 6.48333C22.0229 5.85 21.1399 5.31667 20.1569 4.91667L19.557 0.683333C19.4904 0.283333 19.1572 0 18.7573 0H12.3594C11.9595 0 11.6429 0.283333 11.5763 0.683333L10.9765 4.91667C9.99345 5.31667 9.09374 5.86667 8.27734 6.48333L4.29529 4.88333C3.92874 4.75 3.5122 4.88333 3.31227 5.25L0.129959 10.7833C-0.0699769 11.1333 -0.00333187 11.5667 0.329894 11.8L3.71214 14.4333C3.62883 14.9333 3.56219 15.4833 3.56219 16C3.56219 16.5167 3.59551 17.0667 3.67882 17.5667L0.296572 20.2C-0.00333185 20.4333 -0.0866382 20.8833 0.0966362 21.2167L3.29561 26.75C3.49554 27.1167 3.91208 27.2333 4.27863 27.1167L8.26068 25.5167C9.09374 26.15 9.97679 26.6833 10.9598 27.0833L11.5596 31.3167C11.6429 31.7167 11.9595 32 12.3594 32H18.7573C19.1572 32 19.4904 31.7167 19.5404 31.3167L20.1402 27.0833C21.1232 26.6833 22.0229 26.15 22.8393 25.5167L26.8214 27.1167C27.1879 27.25 27.6045 27.1167 27.8044 26.75L31.0034 21.2167C31.2033 20.85 31.12 20.4333 30.8034 20.2L27.4545 17.5667ZM15.5583 22C12.2594 22 9.56026 19.3 9.56026 16C9.56026 12.7 12.2594 10 15.5583 10C18.8573 10 21.5564 12.7 21.5564 16C21.5564 19.3 18.8573 22 15.5583 22Z" fill="#535CE8"/>
</svg>
