<svg width="21" height="20" viewBox="0 0 21 20" fill="none" xmlns="http://www.w3.org/2000/svg">
<path d="M10.2062 10.2578C10.2062 10.2507 10.2072 10.2469 10.2088 10.2432C10.211 10.2381 10.2154 10.2307 10.223 10.2231C10.2306 10.2155 10.2381 10.211 10.2432 10.2089C10.2469 10.2073 10.2506 10.2062 10.2577 10.2062C10.2648 10.2062 10.2685 10.2073 10.2722 10.2089C10.2773 10.211 10.2848 10.2155 10.2924 10.2231C10.3 10.2307 10.3044 10.2381 10.3066 10.2432C10.3082 10.2469 10.3092 10.2507 10.3092 10.2578C10.3092 10.2649 10.3082 10.2686 10.3066 10.2723C10.3044 10.2774 10.3 10.2849 10.2924 10.2925C10.2848 10.3001 10.2773 10.3045 10.2722 10.3067C10.2685 10.3083 10.2648 10.3093 10.2577 10.3093C10.2506 10.3093 10.2469 10.3083 10.2432 10.3067C10.2381 10.3045 10.2306 10.3001 10.223 10.2925C10.2154 10.2849 10.211 10.2774 10.2088 10.2723C10.2072 10.2686 10.2062 10.2649 10.2062 10.2578Z" fill="#171A1F" stroke="#535CE8" stroke-width="4"/>
</svg>
