<svg width="40" height="38" viewBox="0 0 40 38" fill="none" xmlns="http://www.w3.org/2000/svg">
<path d="M20 16C17.8 16 16 17.8 16 20C16 22.2 17.8 24 20 24C22.2 24 24 22.2 24 20C24 17.8 22.2 16 20 16ZM32 20C32 13.38 26.62 8 20 8C13.38 8 8 13.38 8 20C8 24.44 10.42 28.3 14 30.38L16 26.9C13.62 25.5 12 22.96 12 20C12 15.58 15.58 12 20 12C24.42 12 28 15.58 28 20C28 22.96 26.38 25.5 24 26.9L26 30.38C29.58 28.3 32 24.44 32 20ZM20 0C8.96 0 0 8.96 0 20C0 27.4 4.02 33.84 9.98 37.3L11.98 33.84C7.22 31.06 4 25.92 4 20C4 11.16 11.16 4 20 4C28.84 4 36 11.16 36 20C36 25.92 32.78 31.06 28 33.84L30 37.3C35.98 33.84 40 27.4 40 20C40 8.96 31.04 0 20 0Z" fill="#535CE8"/>
</svg>
