<svg width="37" height="50" viewBox="0 0 37 50" fill="none" xmlns="http://www.w3.org/2000/svg">
<path d="M18.018 0L15.976 2.04204C15.3153 2.7027 0 18.1982 0 31.3513C0 41.2612 8.1081 49.3693 18.018 49.3693C27.9279 49.3693 36.036 41.2612 36.036 31.3513C36.036 18.2582 20.7207 2.7027 20.06 2.04204L18.018 0ZM9.009 28.3483C10.6907 28.3483 12.012 29.6696 12.012 31.3513C12.012 34.6546 14.7147 37.3573 18.018 37.3573C19.6997 37.3573 21.021 38.6786 21.021 40.3603C21.021 42.042 19.6997 43.3633 18.018 43.3633C11.4114 43.3633 6.006 37.9579 6.006 31.3513C6.006 29.6696 7.32732 28.3483 9.009 28.3483Z" fill="#535CE8"/>
</svg>
